<svg width="74" height="74" viewBox="0 0 74 74" fill="none" xmlns="http://www.w3.org/2000/svg">
<rect width="64" height="64" rx="15" transform="matrix(1 0 0 -1 0 64)" fill="url(#paint0_linear_484_15770)"/>
<g filter="url(#filter0_b_484_15770)">
<rect width="64" height="64" rx="15" transform="matrix(1 0 0 -1 10 74)" fill="#EEEEEE" fill-opacity="0.61"/>
<rect x="0.5" y="-0.5" width="63" height="63" rx="14.5" transform="matrix(1 0 0 -1 10 73)" stroke="white"/>
</g>
<path d="M34.7222 32.7778L37.5 30M31.9444 48.0556L43.0556 36.9444M37.5 55L40.2778 52.2222M43.75 52.2222C44.6709 52.2222 45.5541 51.8564 46.2052 51.2052C46.8564 50.5541 47.2222 49.6709 47.2222 48.75C47.2222 47.8291 46.8564 46.9459 46.2052 46.2948C45.5541 45.6436 44.6709 45.2778 43.75 45.2778C42.8291 45.2778 41.9459 45.6436 41.2948 46.2948C40.6436 46.9459 40.2778 47.8291 40.2778 48.75C40.2778 49.6709 40.6436 50.5541 41.2948 51.2052C41.9459 51.8564 42.8291 52.2222 43.75 52.2222ZM31.25 39.7222C32.1709 39.7222 33.0541 39.3564 33.7052 38.7052C34.3564 38.0541 34.7222 37.1709 34.7222 36.25C34.7222 35.3291 34.3564 34.4459 33.7052 33.7948C33.0541 33.1436 32.1709 32.7778 31.25 32.7778C30.3291 32.7778 29.4459 33.1436 28.7948 33.7948C28.1436 34.4459 27.7778 35.3291 27.7778 36.25C27.7778 37.1709 28.1436 38.0541 28.7948 38.7052C29.4459 39.3564 30.3291 39.7222 31.25 39.7222ZM28.4722 55C29.3931 55 30.2763 54.6342 30.9275 53.983C31.5786 53.3318 31.9444 52.4487 31.9444 51.5278C31.9444 50.6069 31.5786 49.7237 30.9275 49.0725C30.2763 48.4214 29.3931 48.0556 28.4722 48.0556C27.5513 48.0556 26.6682 48.4214 26.017 49.0725C25.3658 49.7237 25 50.6069 25 51.5278C25 52.4487 25.3658 53.3318 26.017 53.983C26.6682 54.6342 27.5513 55 28.4722 55ZM46.5278 36.9444C47.4487 36.9444 48.3318 36.5786 48.983 35.9275C49.6342 35.2763 50 34.3931 50 33.4722C50 32.5513 49.6342 31.6682 48.983 31.017C48.3318 30.3658 47.4487 30 46.5278 30C45.6069 30 44.7237 30.3658 44.0725 31.017C43.4214 31.6682 43.0556 32.5513 43.0556 33.4722C43.0556 34.3931 43.4214 35.2763 44.0725 35.9275C44.7237 36.5786 45.6069 36.9444 46.5278 36.9444Z" stroke="#699BF7" stroke-width="2.77778" stroke-linecap="round" stroke-linejoin="round"/>
<defs>
<filter id="filter0_b_484_15770" x="2" y="2" width="80" height="80" filterUnits="userSpaceOnUse" color-interpolation-filters="sRGB">
<feFlood flood-opacity="0" result="BackgroundImageFix"/>
<feGaussianBlur in="BackgroundImageFix" stdDeviation="4"/>
<feComposite in2="SourceAlpha" operator="in" result="effect1_backgroundBlur_484_15770"/>
<feBlend mode="normal" in="SourceGraphic" in2="effect1_backgroundBlur_484_15770" result="shape"/>
</filter>
<linearGradient id="paint0_linear_484_15770" x1="32" y1="0" x2="32" y2="64" gradientUnits="userSpaceOnUse">
<stop stop-color="#6E9EF7"/>
<stop offset="1" stop-color="#8BB4FF" stop-opacity="0.18"/>
</linearGradient>
</defs>
</svg>
