<svg width="169" height="36" viewBox="0 0 169 36" fill="none" xmlns="http://www.w3.org/2000/svg">
<g clip-path="url(#clip0_181_64643)">
<path d="M13.1691 32.6776C13.1691 33.3928 13.7329 33.9737 14.4396 33.9979C14.4408 33.9979 14.4421 33.9992 14.4421 34.0005V35.3823C14.4421 35.3847 14.4396 35.3861 14.437 35.3847L0.742059 27.455C0.284113 27.1901 0.00219727 26.6988 0.00219727 26.1691V18.0205C0.00219727 18.0192 0.00347537 18.0179 0.00475099 18.0179H1.06224C1.06096 18.0077 1.06096 17.9974 1.06096 17.9872C1.06096 17.2566 1.65029 16.6655 2.37866 16.6655C3.10704 16.6655 3.69636 17.2566 3.69636 17.9872C3.69636 17.9974 3.69636 18.0077 3.69512 18.0179H4.79595C4.79723 18.0179 4.7985 18.0192 4.7985 18.0205V23.3915C4.7985 23.9225 5.08041 24.4125 5.53835 24.6773L14.4383 29.8309C14.4396 29.8309 14.4396 29.8321 14.4396 29.8334V31.3521C14.4396 31.3534 14.4383 31.3547 14.437 31.3547C13.7329 31.3815 13.1691 31.9624 13.1691 32.6776Z" fill="#46A72B"/>
<path d="M31.1195 19.144V26.1706C31.1195 26.7015 30.8376 27.1915 30.3797 27.4564L16.6847 35.3863C16.6822 35.3876 16.6796 35.3863 16.6796 35.3838V33.9981C16.6656 33.9994 16.649 33.9994 16.635 33.9994C16.1911 33.9994 15.8008 33.7806 15.5609 33.4441C15.4079 33.2279 15.3173 32.9631 15.3173 32.6777C15.3173 32.3911 15.4079 32.1276 15.5609 31.9114C15.8008 31.5749 16.1911 31.3561 16.635 31.3561C16.649 31.3561 16.6656 31.3561 16.6796 31.3574V29.8349C16.6796 29.8336 16.6796 29.8323 16.6809 29.8323L25.5808 24.6788C26.0388 24.4139 26.3207 23.9226 26.3207 23.3929V19.144C26.3207 19.1427 26.322 19.1414 26.3233 19.1414H27.4203C27.4216 19.1414 27.4228 19.1427 27.4228 19.1452L27.4216 19.1542C27.3858 19.6148 27.6091 20.0677 28.0122 20.2903C29.0301 20.852 30.0582 20.1291 30.0582 19.1657C30.0582 19.158 30.0582 19.1516 30.057 19.1427H31.1145C31.1183 19.1401 31.1195 19.1427 31.1195 19.144Z" fill="#46A72B"/>
<path d="M31.1193 9.8654V16.892C31.1193 16.8933 31.118 16.8946 31.1167 16.8946H30.0605V16.9087C30.0605 17.3846 29.8092 17.8017 29.4342 18.0346C29.2327 18.1587 28.9966 18.2303 28.7428 18.2303C28.4889 18.2303 28.253 18.1587 28.0514 18.0346C27.6751 17.8017 27.4251 17.3846 27.4251 16.9087V16.8946H26.3255C26.3242 16.8946 26.323 16.8933 26.323 16.892V12.6431C26.323 12.1121 26.0411 11.6221 25.5831 11.3572L16.6819 6.20241L15.5645 5.55502C15.5632 5.55502 15.5632 5.55374 15.5632 5.55246V4.23081C15.5632 4.22953 15.5645 4.22825 15.5658 4.22825C16.2929 4.22697 16.8809 3.63587 16.8809 2.90661C16.8809 2.17733 16.2929 1.58623 15.5658 1.58495C15.5645 1.58495 15.5632 1.58367 15.5632 1.58239V0.00486098C15.5632 0.00230211 15.5658 0.00102311 15.5683 0.00230254L16.6832 0.648416L30.3832 8.58087C30.8374 8.84444 31.1193 9.33573 31.1193 9.8654Z" fill="#46A72B"/>
<path d="M11.1714 20.1049V16.2935C11.1714 16.0479 11.3028 15.8201 11.5146 15.6973L14.8056 13.7922C15.0186 13.6694 15.2802 13.6694 15.4919 13.7922L18.783 15.6973C18.996 15.8201 19.2575 15.8201 19.4693 15.6973L21.6467 14.4358C22.1047 14.1709 22.1047 13.5082 21.6467 13.2421L15.4919 9.67755C15.2789 9.55475 15.0174 9.55475 14.8056 9.67755L7.96326 13.6399C7.75023 13.7628 7.62012 13.9905 7.62012 14.2362V22.161C7.62012 22.4066 7.75151 22.6344 7.96326 22.7572L14.1181 26.3217C14.576 26.5865 15.1488 26.2551 15.1488 25.7254V23.2037C15.1488 22.958 15.0174 22.7303 14.8056 22.6075L11.5146 20.7024C11.3015 20.5783 11.1714 20.3506 11.1714 20.1049Z" fill="#262626"/>
<path d="M23.7936 17.826V19.0875C23.7936 19.3331 23.6622 19.5609 23.4504 19.6837L22.259 20.3746L20.8265 21.2036C20.6135 21.3265 20.4833 21.5542 20.4833 21.7999V24.8385C20.4833 25.0842 20.352 25.3119 20.1402 25.4347L19.0508 26.0642C18.8378 26.187 18.5763 26.187 18.3646 26.0642L17.2752 25.4347C17.0622 25.3119 16.9321 25.0842 16.9321 24.8385V21.7999C16.9321 21.5542 16.8006 21.3265 16.5889 21.2036L15.1564 20.3746L13.965 19.6837C13.752 19.5609 13.6218 19.3331 13.6218 19.0875V17.826C13.6218 17.5803 13.7533 17.3526 13.965 17.2297L15.0531 16.6003C15.2661 16.4774 15.5276 16.4774 15.7394 16.6003L16.9308 17.2912L18.3633 18.1202C18.5763 18.243 18.8378 18.243 19.0496 18.1202L20.4821 17.2912L21.6735 16.6003C21.8865 16.4774 22.148 16.4774 22.3598 16.6003L23.4479 17.2297C23.6622 17.3526 23.7936 17.579 23.7936 17.826Z" fill="#46A72B"/>
<path d="M16.8784 2.90654C16.8784 3.63581 16.2904 4.22691 15.5633 4.22819C15.562 4.22819 15.5607 4.22947 15.5607 4.23076V5.5524C15.5607 5.55368 15.5607 5.55497 15.5595 5.55497L14.442 6.20235L5.54078 11.3572C5.08285 11.622 4.80094 12.1133 4.80094 12.643V18.014C4.80094 18.0153 4.79966 18.0166 4.79838 18.0166H3.69751C3.69879 18.0064 3.69879 17.9961 3.69879 17.9859C3.69879 17.2553 3.10948 16.6642 2.3811 16.6642C1.65273 16.6642 1.0634 17.2553 1.0634 17.9859C1.0634 17.9961 1.06339 18.0064 1.06466 18.0166H0.00719236C0.00591674 18.0166 0.00463867 18.0153 0.00463867 18.014V9.86534C0.00463867 9.33438 0.286555 8.84438 0.7445 8.57953L14.4446 0.64707L15.5595 0.000959766C15.562 -0.000319662 15.5645 0.000959335 15.5645 0.00351819V1.58105C15.5645 1.58233 15.5658 1.58361 15.5671 1.58361C16.2904 1.58617 16.8784 2.17727 16.8784 2.90654Z" fill="#262626"/>
</g>
<path d="M51.2993 21.8025L53.4487 24.6501C51.9511 25.9323 50.1346 26.5568 48.3248 26.5568C45.9812 26.5568 43.65 25.5098 42.04 23.4869C40.8405 21.9764 40.2134 20.1556 40.1194 18.3179H40.9832C41.0257 19.0401 41.1611 19.7505 41.3888 20.4361C41.6674 21.275 42.0741 22.0505 42.5988 22.7423L42.8853 23.1205L44.8853 21.4001L45.0509 21.564C45.9387 22.4427 47.0951 22.9269 48.3069 22.9269C49.4045 22.9269 50.4523 22.5286 51.2993 21.8025ZM41.8816 17.3466H40.8841C41.1141 13.3144 44.2033 10.0476 48.0685 9.91572C50.0378 9.85231 51.9281 10.6121 53.3844 12.067C53.5455 12.2281 53.6988 12.397 53.8442 12.5704L51.3642 14.9254C50.6118 14.0293 49.522 13.4609 48.3069 13.4609C46.0428 13.4609 44.2011 15.4225 44.2011 17.8337C44.2011 18.6984 44.4411 19.5036 44.8501 20.1831L43.0347 21.7447C42.7051 21.2419 42.4416 20.6948 42.2492 20.1141C42.0053 19.3796 41.8816 18.6125 41.8816 17.8337V17.3466V17.3466Z" fill="#262626"/>
<path d="M70.0722 9.57236L63.704 19.4452V19.5064H63.0702L58.2802 12.3404H55.8243L54.0391 9.57236H58.099L62.0553 15.7071L66.0117 9.57236H70.0722V9.57236ZM62.4621 20.4783H63.0959V26.3897H59.751V20.3414L55.2161 13.3117H57.6721L62.4621 20.4783Z" fill="#262626"/>
<path d="M84.3593 20.5864C84.3593 23.4436 82.1764 25.7689 79.4933 25.7689H77.7573V23.3695L75.5335 23.3729V22.2058H79.481C80.3196 22.2058 81.0015 21.4797 81.0015 20.5864C81.0015 19.6931 80.3196 18.967 79.481 18.967H74.5897V24.3442L76.8516 24.338V26.4158H71.2443V10.8695H73.5251V15.4039H79.1772C79.6801 15.4039 80.0896 14.9679 80.0896 14.432C80.0896 13.8961 79.6801 13.4602 79.1772 13.4602H75.5022V14.432H74.4376V9.89761H79.1766C81.5246 9.89761 83.434 11.9317 83.434 14.432C83.434 15.2995 83.2002 16.1075 82.8018 16.7977C83.7574 17.7449 84.3593 19.0904 84.3593 20.5864Z" fill="#262626"/>
<path d="M89.6634 22.8262H97.3675V26.3893H86.3185V17.5836H87.2942V19.662H90.3543V20.8022H89.6634V22.8262V22.8262ZM90.5759 13.433V16.2672H98.2609L96.9535 19.7849L96.9351 19.8303H91.2662V18.6902H88.2072V16.6106H87.2309V9.87048H98.2794V13.4336H90.5759V13.433Z" fill="#262626"/>
<path d="M114.008 26.4164H110.009L106.925 21.2339H104.027V24.8582L100.682 26.4001V10.8695H102.926V16.052H104.027V18.5753H109.288L110.517 20.5639C110.517 20.5673 110.513 20.5673 110.513 20.5673L114.008 26.4164ZM104.941 15.1009H103.838V9.91839L109.046 9.89819C111.729 9.89819 113.912 12.2235 113.912 15.0807C113.912 17.0154 112.909 18.7033 111.43 19.5938L110.199 17.6046H104.94V16.7001H109.046C109.885 16.7001 110.567 15.9734 110.567 15.0807C110.567 14.1874 109.885 13.4607 109.046 13.4607H104.94V15.1009H104.941Z" fill="#262626"/>
<path d="M130.613 9.57236L124.245 19.4452V19.5064H123.611L118.821 12.3404H116.365L114.58 9.57236H118.639L122.596 15.7071L126.552 9.57236H130.613V9.57236ZM123.002 20.4783H123.636V26.3897H120.291V20.3414L115.757 13.3117H118.213L123.002 20.4783Z" fill="#46A72B"/>
<path d="M140.361 25.0375L137.289 26.4526L136.809 25.3349H130.778L130.295 26.4554H126.612L129.251 20.337H132.919L131.812 22.9058H139.439L140.361 25.0375ZM133.831 19.3662H130.164L134.704 8.85254L140.352 21.935H133.333L133.822 20.801H136.182L134.704 17.381L133.831 19.3662Z" fill="#46A72B"/>
<path d="M142.152 14.1083L149.147 21.5582V23.0222L145.497 19.1387V26.4164H142.152V14.1083ZM161.92 9.93016L161.919 26.4164H161.916L158.574 24.875V18.531L152.511 24.9884L150.06 22.3747V20.9107L143.065 13.4607V9.89761H143.071L152.511 19.9512L161.919 9.9296V9.93072L161.92 9.93016Z" fill="#46A72B"/>
<path d="M167.14 18.3189H168.053V26.3968L164.708 24.8554V13.7845H167.141V18.3189H167.14ZM168.965 9.89761V17.3476H168.053V12.8132H165.62V9.89761H168.965Z" fill="#46A72B"/>
<defs>
<clipPath id="clip0_181_64643">
<rect width="31.1194" height="35.4089" fill="white" transform="translate(0 0.000488281)"/>
</clipPath>
</defs>
</svg>
