<svg width="74" height="74" viewBox="0 0 74 74" fill="none" xmlns="http://www.w3.org/2000/svg">
<rect width="64" height="64" rx="15" transform="matrix(1 0 0 -1 0 64)" fill="url(#paint0_linear_484_15750)"/>
<g filter="url(#filter0_b_484_15750)">
<rect width="64" height="64" rx="15" transform="matrix(1 0 0 -1 10 74)" fill="#EEEEEE" fill-opacity="0.61"/>
<rect x="0.5" y="-0.5" width="63" height="63" rx="14.5" transform="matrix(1 0 0 -1 10 73)" stroke="white"/>
</g>
<path d="M46.2492 39.19V36.5421C47.1059 36.1786 47.9823 35.906 48.8785 35.7243C49.7736 35.5426 50.7144 35.4517 51.7009 35.4517C52.3759 35.4517 53.0379 35.5036 53.6869 35.6075C54.3359 35.7113 54.972 35.8411 55.595 35.9969V38.4891C54.972 38.2555 54.3427 38.0805 53.7072 37.9642C53.0706 37.8468 52.4019 37.7882 51.7009 37.7882C50.7144 37.7882 49.7669 37.9117 48.8583 38.1589C47.9496 38.405 47.08 38.7487 46.2492 39.19ZM46.2492 47.757V45.109C47.1059 44.7456 47.9823 44.473 48.8785 44.2913C49.7736 44.1096 50.7144 44.0187 51.7009 44.0187C52.3759 44.0187 53.0379 44.0706 53.6869 44.1745C54.3359 44.2783 54.972 44.4081 55.595 44.5639V47.0561C54.972 46.8224 54.3427 46.6475 53.7072 46.5312C53.0706 46.4138 52.4019 46.3551 51.7009 46.3551C50.7144 46.3551 49.7669 46.472 48.8583 46.7056C47.9496 46.9393 47.08 47.2897 46.2492 47.757ZM46.2492 43.4735V40.8255C47.1059 40.4621 47.9823 40.1895 48.8785 40.0078C49.7736 39.8261 50.7144 39.7352 51.7009 39.7352C52.3759 39.7352 53.0379 39.7871 53.6869 39.891C54.3359 39.9948 54.972 40.1246 55.595 40.2804V42.7726C54.972 42.5389 54.3427 42.364 53.7072 42.2477C53.0706 42.1303 52.4019 42.0717 51.7009 42.0717C50.7144 42.0717 49.7669 42.1952 48.8583 42.4424C47.9496 42.6885 47.08 43.0322 46.2492 43.4735ZM34.567 48.6916C35.7871 48.6916 36.9751 48.8276 38.1308 49.0997C39.2856 49.3728 40.4341 49.7819 41.5763 50.3271V34.9844C40.5119 34.3614 39.3827 33.8941 38.1885 33.5826C36.9943 33.271 35.7871 33.1153 34.567 33.1153C33.6324 33.1153 32.7046 33.2061 31.7835 33.3879C30.8614 33.5696 29.972 33.8422 29.1153 34.2056V49.6262C30.0239 49.3146 30.9263 49.081 31.8224 48.9252C32.7175 48.7695 33.6324 48.6916 34.567 48.6916ZM44.6916 50.3271C45.8339 49.7819 46.9829 49.3728 48.1386 49.0997C49.2934 48.8276 50.4808 48.6916 51.7009 48.6916C52.6355 48.6916 53.5509 48.7695 54.447 48.9252C55.3422 49.081 56.244 49.3146 57.1526 49.6262V34.2056C56.296 33.8422 55.4071 33.5696 54.486 33.3879C53.5639 33.2061 52.6355 33.1153 51.7009 33.1153C50.4808 33.1153 49.2736 33.271 48.0794 33.5826C46.8853 33.8941 45.756 34.3614 44.6916 34.9844V50.3271ZM43.134 54.9221C41.8879 53.9356 40.5379 53.1698 39.0841 52.6246C37.6303 52.0794 36.1246 51.8069 34.567 51.8069C33.1911 51.8069 31.7503 52.0665 30.2445 52.5857C28.7388 53.1049 27.324 53.9097 26 55V32.4143C27.1423 31.6355 28.486 31.0384 30.0312 30.6231C31.5753 30.2077 33.0872 30 34.567 30C36.0727 30 37.5462 30.1947 38.9875 30.5841C40.4278 30.9735 41.81 31.5576 43.134 32.3364C44.4579 31.5576 45.8406 30.9735 47.2819 30.5841C48.7222 30.1947 50.1952 30 51.7009 30C53.1807 30 54.6931 30.2077 56.2383 30.6231C57.7825 31.0384 59.1257 31.6355 60.2679 32.4143V55C58.9699 53.9097 57.5618 53.1049 56.0436 52.5857C54.5244 52.0665 53.0768 51.8069 51.7009 51.8069C50.1433 51.8069 48.6376 52.0794 47.1838 52.6246C45.73 53.1698 44.3801 53.9356 43.134 54.9221Z" fill="#FDCF49"/>
<defs>
<filter id="filter0_b_484_15750" x="2" y="2" width="80" height="80" filterUnits="userSpaceOnUse" color-interpolation-filters="sRGB">
<feFlood flood-opacity="0" result="BackgroundImageFix"/>
<feGaussianBlur in="BackgroundImageFix" stdDeviation="4"/>
<feComposite in2="SourceAlpha" operator="in" result="effect1_backgroundBlur_484_15750"/>
<feBlend mode="normal" in="SourceGraphic" in2="effect1_backgroundBlur_484_15750" result="shape"/>
</filter>
<linearGradient id="paint0_linear_484_15750" x1="32" y1="0" x2="32" y2="64" gradientUnits="userSpaceOnUse">
<stop stop-color="#FDCF49"/>
<stop offset="0.739297" stop-color="#FDCF49" stop-opacity="0.22"/>
</linearGradient>
</defs>
</svg>
